<svg xmlns="http://www.w3.org/2000/svg" style="display:none">
  <defs>
    <style>
      .lr-line{fill:none;stroke:currentColor;stroke-width:1.8;stroke-linecap:round;stroke-linejoin:round}
      .lr-fill{fill:currentColor;stroke:none}
      .lr-thin{fill:none;stroke:currentColor;stroke-width:1.35;stroke-linecap:round;stroke-linejoin:round}
    </style>
  </defs>

  <!-- Resources -->
  <symbol id="icon-gold" viewBox="0 0 24 24">
    <ellipse class="lr-line" cx="12" cy="7" rx="6.5" ry="3"/>
    <path class="lr-line" d="M5.5 7v4c0 1.7 2.9 3 6.5 3s6.5-1.3 6.5-3V7M5.5 11v4c0 1.7 2.9 3 6.5 3s6.5-1.3 6.5-3v-4"/>
    <path class="lr-thin" d="M10 6.2h4M10 10.3h4M10 14.4h4"/>
  </symbol>
  <symbol id="icon-rations" viewBox="0 0 24 24">
    <path class="lr-line" d="M5 15c2-4 4-6 7-7 1.8-.6 3.7-.4 5.4.4L19 10l-2 1 2 1.5-2.4 1.1C13.8 15 10.5 15.6 7 17z"/>
    <path class="lr-line" d="M7 17c-1.1 1.1-2.1 1.3-3 .5-.8-.8-.5-1.8 1-3"/>
    <circle class="lr-fill" cx="15.2" cy="10.5" r=".8"/>
  </symbol>
  <symbol id="icon-fatigue" viewBox="0 0 24 24">
    <path class="lr-line" d="M8 4h8M8 20h8M9 4v3.5c0 2 3 3 3 4.5s-3 2.5-3 4.5V20M15 4v3.5c0 2-3 3-3 4.5s3 2.5 3 4.5V20"/>
    <path class="lr-thin" d="M10.2 8.2h3.6M10.2 15.8h3.6"/>
  </symbol>
  <symbol id="icon-renown" viewBox="0 0 24 24">
    <path class="lr-line" d="m12 3 2.4 5 5.6.8-4 3.9.9 5.5-4.9-2.6-4.9 2.6.9-5.5-4-3.9L9.6 8z"/>
    <circle class="lr-thin" cx="12" cy="12" r="2.2"/>
  </symbol>
  <symbol id="icon-health" viewBox="0 0 24 24">
    <path class="lr-line" d="M12 20S4.5 15.5 4.5 9.2A4.2 4.2 0 0 1 12 6.6a4.2 4.2 0 0 1 7.5 2.6C19.5 15.5 12 20 12 20z"/>
    <path class="lr-line" d="M9 12h6M12 9v6"/>
  </symbol>
  <symbol id="icon-time" viewBox="0 0 24 24">
    <circle class="lr-line" cx="12" cy="12" r="8"/>
    <path class="lr-line" d="M12 7v5l3.5 2"/>
  </symbol>

  <!-- Map / locations -->
  <symbol id="icon-settlement" viewBox="0 0 24 24">
    <path class="lr-line" d="M4 19h16M6 19v-7l6-5 6 5v7M9 19v-4h6v4M5 12l7-6 7 6"/>
  </symbol>
  <symbol id="icon-site" viewBox="0 0 24 24">
    <path class="lr-line" d="m12 3 2 6 6 3-6 3-2 6-2-6-6-3 6-3z"/>
    <circle class="lr-fill" cx="12" cy="12" r="1.2"/>
  </symbol>
  <symbol id="icon-party" viewBox="0 0 24 24">
    <path class="lr-line" d="M12 4c2.4 2.4 4 5 4 8.1 0 3.2-1.8 5.8-4 7.9-2.2-2.1-4-4.7-4-7.9C8 9 9.6 6.4 12 4z"/>
    <path class="lr-line" d="M12 8v7M9.5 12.5 12 15l2.5-2.5"/>
  </symbol>
  <symbol id="icon-camp" viewBox="0 0 24 24">
    <path class="lr-line" d="m4 19 8-14 8 14M7 19h10M10 19l2-4 2 4"/>
  </symbol>
  <symbol id="icon-inn" viewBox="0 0 24 24">
    <path class="lr-line" d="M5 20V5h10v15M8 9h4M8 13h4M15 10h4v10M17 13h2"/>
    <path class="lr-line" d="M3 20h18"/>
  </symbol>
  <symbol id="icon-shrine" viewBox="0 0 24 24">
    <path class="lr-line" d="M5 20h14M7 20V9h10v11M6 9l6-5 6 5M12 8v7M9.5 11.5h5"/>
  </symbol>
  <symbol id="icon-ruin" viewBox="0 0 24 24">
    <path class="lr-line" d="M5 20V7l3 1 2-4 3 3 2-2 4 2v13M4 20h16M9 20v-5h4v5M6 11h2M15 10h2"/>
  </symbol>
  <symbol id="icon-bridge" viewBox="0 0 24 24">
    <path class="lr-line" d="M3 17h18M4 14c3-5 13-5 16 0M6 14v3M10 11.5V17M14 11.5V17M18 14v3"/>
  </symbol>
  <symbol id="icon-tower" viewBox="0 0 24 24">
    <path class="lr-line" d="M7 20V7h10v13M6 7h12l-1-3-2 2-3-2-3 2-2-2zM10 20v-5h4v5M10 10h4"/>
  </symbol>
  <symbol id="icon-cave" viewBox="0 0 24 24">
    <path class="lr-line" d="M3 19c2-8 5-13 9-13s7 5 9 13M8 19c.5-5 1.8-8 4-8s3.5 3 4 8M3 19h18"/>
  </symbol>
  <symbol id="icon-ford" viewBox="0 0 24 24">
    <path class="lr-line" d="M3 9c2-1.6 4-1.6 6 0s4 1.6 6 0 4-1.6 6 0M3 14c2-1.6 4-1.6 6 0s4 1.6 6 0 4-1.6 6 0"/>
    <path class="lr-thin" d="M7 5v13M17 5v13"/>
  </symbol>
  <symbol id="icon-ferry" viewBox="0 0 24 24">
    <path class="lr-line" d="M4 14h16l-2 4H6zM8 14V8h8v6M6 18c1.5 1 3 1 4.5 0s3-1 4.5 0 3 1 4.5 0"/>
    <path class="lr-thin" d="M12 8V5"/>
  </symbol>
  <symbol id="icon-market" viewBox="0 0 24 24">
    <path class="lr-line" d="M4 9h16l-2-5H6zM6 9v10M18 9v10M4 19h16M9 19v-5h6v5"/>
    <path class="lr-line" d="M4 9c0 2 3 2 4 0 1 2 3 2 4 0 1 2 3 2 4 0 1 2 4 2 4 0"/>
  </symbol>
  <symbol id="icon-warden" viewBox="0 0 24 24">
    <path class="lr-line" d="M12 3 19 6v5c0 4.6-2.7 7.7-7 10-4.3-2.3-7-5.4-7-10V6z"/>
    <path class="lr-line" d="m9 12 2 2 4-5"/>
  </symbol>
  <symbol id="icon-archive" viewBox="0 0 24 24">
    <path class="lr-line" d="M4 6h7v13H4zM13 4h7v15h-7zM6.5 9h2M6.5 12h2M15.5 7h2M15.5 10h2"/>
  </symbol>

  <!-- Common actions -->
  <symbol id="icon-travel" viewBox="0 0 24 24">
    <path class="lr-line" d="M4 18c5-1 5-9 10-9h5M16 6l3 3-3 3"/>
    <circle class="lr-fill" cx="5" cy="18" r="1.8"/>
  </symbol>
  <symbol id="icon-rest" viewBox="0 0 24 24">
    <path class="lr-line" d="M17 5a7 7 0 1 0 2 12 8 8 0 0 1-2-12z"/>
    <path class="lr-thin" d="M7 6h3l-3 3h3M13 3h3l-3 3h3"/>
  </symbol>
  <symbol id="icon-talk" viewBox="0 0 24 24">
    <path class="lr-line" d="M4 5h16v11H9l-5 4z"/>
    <path class="lr-thin" d="M8 9h8M8 12h5"/>
  </symbol>
  <symbol id="icon-trade" viewBox="0 0 24 24">
    <path class="lr-line" d="M4 8h14M15 5l3 3-3 3M20 16H6M9 13l-3 3 3 3"/>
  </symbol>
  <symbol id="icon-search" viewBox="0 0 24 24">
    <circle class="lr-line" cx="10.5" cy="10.5" r="5.5"/>
    <path class="lr-line" d="m14.5 14.5 5 5"/>
    <path class="lr-thin" d="M8.5 10.5h4M10.5 8.5v4"/>
  </symbol>
  <symbol id="icon-journal" viewBox="0 0 24 24">
    <path class="lr-line" d="M5 4h6c2 0 3 1 3 3v13c0-2-1-3-3-3H5zM19 4h-5v16c0-2 1-3 3-3h2z"/>
    <path class="lr-thin" d="M7.5 8h3M7.5 11h3M16 8h1"/>
  </symbol>
  <symbol id="icon-inventory" viewBox="0 0 24 24">
    <path class="lr-line" d="M5 8h14v12H5zM8 8V6c0-2 1.3-3 4-3s4 1 4 3v2M9 12h6"/>
  </symbol>
  <symbol id="icon-save" viewBox="0 0 24 24">
    <path class="lr-line" d="M5 4h12l2 2v14H5zM8 4v6h8V4M8 20v-6h8v6"/>
  </symbol>
  <symbol id="icon-load" viewBox="0 0 24 24">
    <path class="lr-line" d="M5 4h14v16H5zM8 4v6h8V4"/>
    <path class="lr-line" d="M12 13v5M9.5 15.5 12 18l2.5-2.5"/>
  </symbol>
  <symbol id="icon-sound" viewBox="0 0 24 24">
    <path class="lr-line" d="M5 10h4l4-4v12l-4-4H5zM16 9c1.5 1.7 1.5 4.3 0 6M18.5 6.5c3 3.1 3 7.9 0 11"/>
  </symbol>

  <!-- Combat / status -->
  <symbol id="icon-attack" viewBox="0 0 24 24">
    <path class="lr-line" d="m5 19 11-11M13 5l6-1-1 6M5 19l-1-4 4 1M7 17l-2 2"/>
  </symbol>
  <symbol id="icon-defend" viewBox="0 0 24 24">
    <path class="lr-line" d="M12 3 19 6v5c0 4.5-2.7 7.7-7 10-4.3-2.3-7-5.5-7-10V6z"/>
    <path class="lr-line" d="M12 7v9M8 11.5h8"/>
  </symbol>
  <symbol id="icon-heal" viewBox="0 0 24 24">
    <path class="lr-line" d="M9 4h6v5h5v6h-5v5H9v-5H4V9h5z"/>
  </symbol>
  <symbol id="icon-aim" viewBox="0 0 24 24">
    <circle class="lr-line" cx="12" cy="12" r="7"/>
    <circle class="lr-line" cx="12" cy="12" r="3"/>
    <path class="lr-thin" d="M12 2v4M12 18v4M2 12h4M18 12h4"/>
  </symbol>
  <symbol id="icon-guarded" viewBox="0 0 24 24">
    <path class="lr-line" d="M12 3 19 6v5c0 4.5-2.7 7.7-7 10-4.3-2.3-7-5.5-7-10V6z"/>
    <circle class="lr-thin" cx="12" cy="11" r="3"/>
  </symbol>
  <symbol id="icon-blessed" viewBox="0 0 24 24">
    <path class="lr-line" d="M12 3v18M7 8h10"/>
    <path class="lr-thin" d="M5 5 3 3M19 5l2-2M5 19l-2 2M19 19l2 2"/>
  </symbol>
  <symbol id="icon-exposed" viewBox="0 0 24 24">
    <path class="lr-line" d="M3 12s3.3-5 9-5 9 5 9 5-3.3 5-9 5-9-5-9-5z"/>
    <circle class="lr-line" cx="12" cy="12" r="2.5"/>
    <path class="lr-thin" d="M12 2v3M12 19v3"/>
  </symbol>
  <symbol id="icon-weakened" viewBox="0 0 24 24">
    <path class="lr-line" d="m6 5 12 14M18 5 6 19"/>
    <path class="lr-thin" d="M8 3h8M8 21h8"/>
  </symbol>
  <symbol id="icon-injury" viewBox="0 0 24 24">
    <path class="lr-line" d="M12 3c4.7 0 8 3.6 8 8.4 0 4.6-3.4 8.6-8 9.6-4.6-1-8-5-8-9.6C4 6.6 7.3 3 12 3z"/>
    <path class="lr-line" d="m14 6-4 5 3 1-4 6"/>
  </symbol>
</svg>
